# xmcd
#
# Track frame offsets:
# 150
# 3552
# 18735
# 34000
# 45369
# 60325
# 76280
# 89417
# 103098
# 117116
# 129580
# 151446
# 165838
# 180674
# 195972
# 209729
# 222222
# 232218
# 243246
# 255294
# 269452
#
# Disc length: 3736 seconds
#
#
# Revision: 0
# Processed by: cddbd v1.5.1PL2 Copyright (c) Steve Scherf et al.
# Submitted via: FreeRIP 2.941 
#
DISCID=130e9615
DTITLE=Grupo Karisma - Ao Vivo
DYEAR=1900
DGENRE=Folk
TTITLE0=Abertura
TTITLE1=Drama
TTITLE2=Tô Por Aí
TTITLE3=Mais Uma Noite sem Você
TTITLE4=Ela Chorou de Amor
TTITLE5=Amor de Primavera
TTITLE6=Bela Senhorita
TTITLE7=Só por Você
TTITLE8=Hoje Não Posso Ir
TTITLE9=Prefiro Outra
TTITLE10=Pot Pourri Karisma e Sucessos
TTITLE11=Sem Teu Amor
TTITLE12=Chance
TTITLE13=O Doutor e a Empregada
TTITLE14=Amor Primeiro
TTITLE15=Amarrado Por ela
TTITLE16=Me Leva
TTITLE17=Bailão no Litoral
TTITLE18=Na hora de Amar
TTITLE19=Vida cor de Rosa
TTITLE20=Dia de Namorar
EXTD=
EXTT0=
EXTT1=
EXTT2=
EXTT3=
EXTT4=
EXTT5=
EXTT6=
EXTT7=
EXTT8=
EXTT9=
EXTT10=
EXTT11=
EXTT12=
EXTT13=
EXTT14=
EXTT15=
EXTT16=
EXTT17=
EXTT18=
EXTT19=
EXTT20=
PLAYORDER=
